<?xml version="1.0" encoding="utf-8"?>
<!-- Generator: Adobe Illustrator 24.0.2, SVG Export Plug-In . SVG Version: 6.00 Build 0)  -->
<svg version="1.1" id="Layer_1" xmlns="http://www.w3.org/2000/svg" xmlns:xlink="http://www.w3.org/1999/xlink" x="0px" y="0px"
	 viewBox="0 0 969 221.3" style="enable-background:new 0 0 969 221.3;" xml:space="preserve">
<style type="text/css">
	.st0{fill:url(#SVGID_1_);}
	.st1{fill:url(#SVGID_2_);}
	.st2{fill:url(#SVGID_3_);}
	.st3{fill:url(#SVGID_4_);stroke:#FFFFFF;stroke-width:3;stroke-miterlimit:10;}
	.st4{fill:url(#SVGID_5_);stroke:#FFFFFF;stroke-width:3;stroke-miterlimit:10;}
	.st5{fill:#5A5960;}
	.st6{fill:#82B900;}
	.st7{fill:#00A9C6;}
	.st8{fill:#00BDE7;stroke:#F26522;stroke-width:5;stroke-miterlimit:10;}
</style>
<linearGradient id="SVGID_1_" gradientUnits="userSpaceOnUse" x1="763.9647" y1="16.1454" x2="763.9647" y2="16.1454">
	<stop  offset="0.1927" style="stop-color:#22B368"/>
	<stop  offset="0.3502" style="stop-color:#29A680"/>
	<stop  offset="0.6805" style="stop-color:#3C83BD"/>
	<stop  offset="1" style="stop-color:#505FFE"/>
</linearGradient>
<path class="st0" d="M764,16.1"/>
<g>
	<g>
		<linearGradient id="SVGID_2_" gradientUnits="userSpaceOnUse" x1="156.1924" y1="87.4824" x2="81.6263" y2="210.6925">
			<stop  offset="0" style="stop-color:#C0DF2F"/>
			<stop  offset="1" style="stop-color:#00A9C6"/>
		</linearGradient>
		<path class="st1" d="M179.2,80.6c-13.1,21.5-43.3,9.7-76.9,39c-24.9,21.7-17.3,49.5-17.3,49.5s42.2-5.1,64.6-41.5
			c-21.3,57.2-98.1,49.9-98.4,49.9c0,0,16.2,8.2,36.2,3.5c22.2,5.5,54.1-0.9,73.1-20.9C196.2,122.3,179.2,80.6,179.2,80.6z"/>
		<linearGradient id="SVGID_3_" gradientUnits="userSpaceOnUse" x1="102.1013" y1="33.7296" x2="102.1013" y2="167.8434">
			<stop  offset="0" style="stop-color:#C0DF2F"/>
			<stop  offset="1" style="stop-color:#00A9C6"/>
		</linearGradient>
		<path class="st2" d="M152.9,53.7c-4.1-4.1-8.8-7.7-13.8-10.6c-0.6-0.4-1.3-0.7-1.9-1.1c-0.6-0.3-1.3-0.7-1.9-1
			c-1.3-0.6-2.6-1.3-4-1.8l-2-0.8l-2.1-0.7c-1.4-0.5-2.8-0.9-4.2-1.3c-5.7-1.5-11.6-2.4-17.5-2.5c-5.9,0-11.9,0.6-17.7,2
			c-11.6,2.8-22.4,8.7-31.1,16.9c-0.5,0.4-0.9,0.9-1.4,1.4c-0.1,0.1-0.1,0.1-0.2,0.2c0,0,0,0,0,0c0,0,0,0,0,0
			c-0.2,0.2-0.4,0.4-0.6,0.6c-3.5,3.5-6.6,7.4-9.2,11.6c-3.2,5.1-5.8,10.5-7.5,16.2c-1.8,5.7-2.9,11.6-3.2,17.5
			c-0.2,3-0.1,5.9,0.1,8.9c0.2,1.5,0.2,2.9,0.5,4.4l0.3,2.2l0.4,2.2c0.1,0.7,0.3,1.4,0.5,2.2l0.5,2.1c0.4,1.4,0.8,2.8,1.3,4.2
			l0.7,2.1c0.3,0.7,0.5,1.4,0.8,2c0.5,1.4,1.2,2.7,1.8,4c2.6,5.3,5.9,10.1,9.7,14.5c7.6,8.7,17.5,15.4,28.2,19
			c-1.5-0.8-2.9-1.6-4.3-2.4c-0.3-1.5-0.6-2.9-0.8-4.3l-0.3-2.4l-0.1-1.2l0-1.2l-0.1-2.4c-0.1-0.8,0-1.6,0-2.4l0.1-2.4
			c0.1-0.8,0.2-1.6,0.2-2.3c0-0.3,0.1-0.6,0.1-0.9c1.7,1.3,3.5,2.5,5.3,3.6c-1.7-1.6-3.5-3.2-5.1-4.9c0,0,0,0,0,0
			c0.8-5.4,2.2-10.7,4.2-15.8c1.9-4.8,4.2-9.3,6.9-13.7c2.4,2.1,4.9,4.2,7.5,6.2c-2.1-2.7-4.2-5.3-6.3-8c3.6-5.5,7.7-10.5,12.3-15.2
			c4.5-4.4,9.4-8.5,14.6-11.9c4.7,3.8,9.4,7.7,14,11.7c-3.4-4.7-7.1-9.2-11-13.6c4.2-2.5,8.5-4.7,13.1-6.5c4.7-1.9,9.7-3.2,14.8-4
			c4.7,4.7,8.9,9.9,12.7,15.5c-2.4-5.6-5.6-11-9.4-15.9c0.8-0.1,1.5-0.2,2.3-0.2l2.4-0.1c1.6-0.1,3.1,0,4.7,0.1l1.2,0l1.2,0.1
			l2.4,0.3c1.3,0.2,2.6,0.5,3.9,0.7c1.7,2.8,3.1,5.7,4.4,8.7C167.1,72.1,161.1,61.9,152.9,53.7z M43.9,108.9
			c-0.8,4.8-1.1,9.8-0.8,14.7c-0.6-2.3-1.1-4.6-1.4-7c-0.8-5.3-1-10.7-0.5-16.1c0.2-2.5,0.6-5,1.1-7.5c0.4,4,1.2,8,2.3,11.8
			c0,0,0,0.1,0,0.1C44.4,106.2,44.1,107.5,43.9,108.9z M105.3,40.6c2.7,0,5.4,0,8,0.3c2.7,0.2,5.3,0.7,8,1.2c0.7,0.2,1.3,0.3,2,0.5
			c-4.7-0.3-9.4,0-14,0.8c-1.1,0.2-2.2,0.4-3.3,0.7c-0.8-0.2-1.5-0.4-2.3-0.7c-3-0.8-6.1-1.4-9.3-1.7C98,41.1,101.6,40.7,105.3,40.6
			z M88.9,48.7c1.1,0,2.1,0,3.2,0.1c-2,0.9-3.9,1.8-5.7,2.9c-2.2,1.2-4.4,2.6-6.5,4c-2.5-1.2-5.1-2.3-7.8-3.2
			c-0.2-0.1-0.4-0.1-0.6-0.2C76.8,49.9,82.8,48.8,88.9,48.7z M59.2,62.9c0.1-1.2,0.4-2.2,0.8-2.7c0.2-0.2,0.3-0.3,0.5-0.5
			c0.4-0.3,0.8-0.5,1.5-0.7c1-0.3,2.3-0.3,3.6-0.1c1.4,0.1,2.8,0.5,4.3,0.9c1,0.3,2.1,0.7,3.1,1c-2.1,1.8-4.2,3.6-6.1,5.5
			c-2,2-3.8,4.1-5.6,6.2c-0.1-0.4-0.3-0.8-0.4-1.2c-0.5-1.5-0.9-3-1.2-4.4C59.2,65.5,59.1,64.1,59.2,62.9z M50.5,77
			c0.6-2.2,1.3-4.2,2.2-6.2c0.3,1.1,0.7,2.1,1.1,3.1c0.7,1.9,1.5,3.6,2.4,5.4c-1.5,2.1-2.8,4.3-4.1,6.6C51,87.9,50,90,49,92.1
			C48.8,86.9,49.2,81.8,50.5,77z M74,163.7c0.3,0.5,0.5,1.1,0.8,1.6c-8.2-4.9-15.3-11.3-20.7-18.9c-1.1-1.5-2.1-3-3-4.5
			c-1.2-3.1-2.1-6.3-2.5-9.6c-0.8-5.6-0.7-11.4,0.3-16.9c2.5,5.4,5.7,10.4,9.3,15.1c3,3.8,6.3,7.3,9.8,10.5c0.7,0.6,1.4,1.3,2.1,1.9
			c0,1.3,0,2.6,0,4c0,0.8,0.1,1.7,0.1,2.5l0.3,2.5c0.2,1.7,0.6,3.3,1,4.9l0.3,1.2l0.4,1.2l0.8,2.3C73.2,162.2,73.6,162.9,74,163.7z
			 M72.6,127c-1.3,4.4-2.1,8.9-2.4,13.4c-0.2-0.3-0.5-0.5-0.7-0.8c-3-3.6-5.8-7.3-8.2-11.2c-4.5-7.1-8-14.8-10-22.7
			c1.8-5.6,4.3-11,7.3-16.1c0.6-1,1.2-2,1.9-3c1.2,1.9,2.5,3.8,3.8,5.6c4.7,6.5,10,12.5,15.7,18C76.7,115.5,74.3,121.1,72.6,127z
			 M93.2,92.7c-4.3,4.4-8.2,9.2-11.5,14.4c-4.4-6-8.6-12.1-12.4-18.3c-1.6-2.7-3.2-5.5-4.6-8.3c0.1-0.1,0.1-0.2,0.2-0.3
			c2.3-2.9,4.8-5.8,7.4-8.4c2.7-2.6,5.5-5.1,8.4-7.4c0,0,0.1,0,0.1-0.1c5,2.6,10,5.6,14.8,8.9c3.9,2.6,7.8,5.4,11.6,8.3
			C102.1,84.7,97.4,88.5,93.2,92.7z M127.4,72.1c-5.7,1.7-11.1,4-16.3,6.9c-3.8-3.8-7.8-7.4-12-10.8c-2.7-2.2-5.4-4.2-8.3-6.2
			c-1.2-0.8-2.4-1.6-3.7-2.4c0.9-0.6,1.8-1.2,2.7-1.7c4.9-2.9,10.1-5.3,15.5-7.1c3.2,0.9,6.4,1.9,9.5,3.2
			c8.4,3.4,16.2,8.4,23.3,14.3c0.5,0.4,1,0.9,1.5,1.3C135.6,70.1,131.5,70.9,127.4,72.1z M164.2,73.5c-0.7-0.3-1.5-0.7-2.3-1
			l-2.3-0.8l-1.2-0.4l-1.2-0.3c-1.6-0.4-3.2-0.8-4.9-1l-2.5-0.3c-0.8-0.1-1.7-0.1-2.5-0.1c-1,0-2-0.1-3,0c-1.1-1.3-2.3-2.6-3.5-3.9
			c-6.7-6.9-14.6-12.8-23.4-17.1c-0.3-0.1-0.6-0.3-0.8-0.4c5.4-0.8,10.8-0.9,16.2-0.2c3,0.4,5.9,1.2,8.8,2.3c3,1.8,5.9,3.9,8.6,6.2
			c5.9,4.9,11,10.9,15,17.6C164.9,73.9,164.5,73.7,164.2,73.5z"/>
	</g>
	<g>
		<linearGradient id="SVGID_4_" gradientUnits="userSpaceOnUse" x1="86.4951" y1="165.3198" x2="191.1545" y2="165.3198">
			<stop  offset="0" style="stop-color:#C0DF2F"/>
			<stop  offset="1" style="stop-color:#00A9C6"/>
		</linearGradient>
		<path class="st3" d="M188.7,125.4c2,0.7,2.6,2,2.5,4.1c-1.3,16.2-6.9,30.6-16.8,43.5c-8.3,10.8-18.7,19.1-31.2,24.7
			c-13.8,6.2-28.3,8.7-43.4,6.8c-4.5-0.5-8.9-1.5-13.3-2.2c0-0.2,0-0.4,0-0.6c1.3-0.5,2.7-0.9,3.9-1.5c6.1-2.7,10.3-7.5,14.1-12.7
			c3.5-4.8,6.8-9.8,10.6-14.3c5.7-6.7,13.3-10.8,21.5-13.8c5.6-2,11.3-3.8,16.4-6.9c0.8-0.5,1.8-1,2.4-1.6c1.2-1.2,2.5-1.4,3.9-0.7
			c1.5,0.7,2.2,2.1,2.1,3.5c-0.2,1.7-0.6,3.6-1.5,5c-5.2,7.3-12.2,12.5-20.2,16.5c-0.5,0.3-1,0.5-1.5,0.8c0,0.2,0,0.3,0.1,0.5
			c2-0.3,4-0.4,6-0.8c6.9-1.4,12.3-5.4,17.4-10c7.6-6.9,12.8-15.2,16.5-24.7c1.4-3.8,2.8-7.6,4.2-11.3c0.8-2.2,2.3-3.7,4.6-4.3
			C187.5,125.4,188.1,125.4,188.7,125.4z"/>
		<linearGradient id="SVGID_5_" gradientUnits="userSpaceOnUse" x1="26.5655" y1="162.8347" x2="105.7321" y2="162.8347">
			<stop  offset="0" style="stop-color:#C0DF2F"/>
			<stop  offset="1" style="stop-color:#00A9C6"/>
		</linearGradient>
		<path class="st4" d="M31.1,125.4c3.7,1,4.4,4.5,5.6,7.4c1.6,3.8,3.2,7.6,4.6,11.5c3.7,10.2,10.4,18,18.6,24.7
			c5.4,4.3,11.5,7.1,18.5,7.4c0.3,0,0.5,0,1.3-0.1c-2.2-1.2-4.1-2.2-5.9-3.2c-6.4-3.7-11.9-8.4-16.2-14.4c-1.4-2-2-4.3-0.9-6.7
			c1-2.2,3.3-2.7,5.3-1.3c4.9,3.5,10.5,5.6,16.1,7.6c6.6,2.5,13.2,4.9,18.8,9.5c4,3.3,6.8,7.4,8.7,12.1c0.2,0.6,0.3,1.6-0.1,2.1
			c-3.1,4.6-6.3,9.1-10.6,12.8c-4,3.4-8.6,4.8-13.6,5.5c-0.8,0.1-1.8-0.3-2.6-0.7c-9.1-3.6-17.3-8.7-24.7-15.2
			c-10.2-9-17.6-19.9-22.5-32.6c-2.7-7.2-4.4-14.6-4.9-22.3c-0.2-2.6,0.1-3.1,2.4-4.1C29.7,125.4,30.4,125.4,31.1,125.4z"/>
	</g>
	<g>
		<path class="st5" d="M202.1,104.8V50.7h9.4v54.1H202.1z M245.5,104.8V81.4h-27.1V73h27.1V50.7h9.4v54.1H245.5z"/>
		<path class="st5" d="M264.2,104.6v-9.4h40.4c5,0,7.9-2.8,7.9-7c0-4.6-2.8-7-7.9-7h-24.8c-10.2,0-16.5-6.5-16.5-15.4
			c0-8.7,5.9-15.1,16.6-15.1h38.7v9.4H280c-4.3,0-6.8,2.5-6.8,6.6s2.6,6.5,6.7,6.5h24.7c10.9,0,16.8,5.1,16.8,15.6
			c0,9-5.5,15.8-16.8,15.8H264.2z"/>
		<path class="st5" d="M329.5,104.6V50.7h48.1v9.4h-38.8v35.1h38.9v9.4H329.5z M345.8,81.2v-7.9h29.9v7.9H345.8z"/>
		<path class="st5" d="M440.1,104.6l-3.7-3.2c-3.7,2-8.1,3.2-12.8,3.2h-13.1c-15.1,0-26.2-11.9-26.2-27.5
			c0-15.9,11.1-26.4,26.2-26.4h13.1c15.6,0,26.4,10.8,26.4,26.4c0,7.9-2.8,14.8-7.5,19.7l10.2,7.9H440.1z M412.7,82.3h12.5l10,8.5
			c3.3-3.2,5.4-7.9,5.4-13.3c0-10.2-7-17.4-17-17.4h-13.1c-9.6,0-16.8,7.2-16.8,17.4c0,10.2,7,17.7,16.8,17.7h13.1
			c1.6,0,3.2-0.2,4.7-0.6L412.7,82.3z"/>
	</g>
	<g>
		<g>
			<path class="st6" d="M546.9,104.6l-13.6-15H513v-8.3h22.5c6.7,0,10.3-3.9,10.3-10.8s-3.9-10.4-10.3-10.4h-29.4v44.5h-9.3V50.7
				h38.7c12.3,0,19.6,7.6,19.6,19.7c0,8.9-4.2,15.2-11.1,17.9l16.2,16.4H546.9z"/>
			<path class="st6" d="M565.1,104.6V50.7h48.1v9.4h-38.8v35.1h38.9v9.4H565.1z M581.4,81.2v-7.9h29.9v7.9H581.4z"/>
			<path class="st6" d="M621.4,104.6V50.7h9.4v44.5h36.3v9.4H621.4z"/>
			<path class="st6" d="M674.4,104.6V50.7h9.4v53.9H674.4z"/>
			<path class="st6" d="M749.9,104.6L741.8,91h-25.5l4.5-7.6h16.5l-12-20.2l-24.5,41.4H690L721,53c1.1-1.9,2.5-3,4.6-3
				s3.4,1.2,4.5,3l31.1,51.6H749.9z"/>
			<path class="st6" d="M775.7,65.1v39.5h-9v-49c0-3.5,1.9-5.6,4.8-5.6c1.4,0,2.6,0.5,4,1.9l38.1,37.8V50.2h9v49.4
				c0,3.6-1.9,5.6-4.7,5.6c-1.6,0-3-0.7-4.3-2L775.7,65.1z"/>
			<path class="st6" d="M856.4,104.6c-15.1,0-26.2-11.9-26.2-27.5c0-15.9,11.1-26.4,26.2-26.4h29.2v9.4h-29.2
				c-9.6,0-16.8,7.2-16.8,17.4c0,10.2,7,17.7,16.8,17.7h29.2v9.4H856.4z"/>
			<path class="st6" d="M893.2,104.6V50.7h48.1v9.4h-38.8v35.1h38.9v9.4H893.2z M909.5,81.2v-7.9h29.9v7.9H909.5z"/>
		</g>
	</g>
	<g>
		<path class="st7" d="M208.8,161.2c1.3,0,2.6,0.1,4,0.2c1.4,0.1,2.7,0.3,4.1,0.6l-0.3,2.6c-1.1,0-2.3-0.1-3.7-0.1c-1.4,0-2.7,0-4,0
			c-0.9,0-1.7,0-2.3,0.1c-0.6,0-1.2,0.2-1.6,0.4s-0.7,0.6-0.9,1s-0.3,1.1-0.3,2c0,1.3,0.3,2.2,0.8,2.7c0.5,0.5,1.3,0.9,2.5,1.2
			l5.3,1.3c2.1,0.5,3.5,1.3,4.2,2.4c0.8,1.1,1.2,2.7,1.2,4.6c0,1.4-0.2,2.6-0.5,3.5c-0.3,0.9-0.9,1.6-1.6,2.1
			c-0.7,0.5-1.7,0.8-2.8,1c-1.2,0.2-2.5,0.3-4.1,0.3c-0.9,0-2,0-3.5-0.1c-1.4-0.1-3.1-0.3-5-0.6l0.3-2.6c1.5,0,2.8,0.1,3.7,0.1
			s1.8,0.1,2.5,0.1s1.4,0,2.1,0c1.3,0,2.3-0.1,3-0.3c0.7-0.2,1.3-0.5,1.6-1.1c0.3-0.5,0.5-1.3,0.5-2.4c0-0.9-0.1-1.6-0.3-2.1
			s-0.6-0.9-1-1.1c-0.5-0.3-1.1-0.5-1.8-0.6l-5.5-1.4c-1.9-0.5-3.3-1.3-4.1-2.4c-0.8-1.1-1.2-2.6-1.2-4.5c0-1.4,0.2-2.6,0.5-3.5
			c0.3-0.9,0.9-1.6,1.6-2c0.7-0.4,1.6-0.7,2.7-0.9C205.9,161.3,207.3,161.2,208.8,161.2z"/>
		<path class="st7" d="M233.8,161.6c0.3,0,0.6,0.1,0.9,0.3c0.3,0.2,0.4,0.4,0.5,0.7l8.4,23.9h-4l-6.6-20c-0.1-0.3-0.2-0.7-0.3-1.1
			c-0.1-0.4-0.2-0.7-0.3-1h-1.1c-0.1,0.3-0.2,0.7-0.3,1c-0.1,0.4-0.2,0.7-0.3,1.1l-6.6,20h-4l8.4-23.9c0.1-0.3,0.3-0.5,0.5-0.7
			c0.3-0.2,0.6-0.3,0.9-0.3H233.8z M238.5,175.9v3H225v-3H238.5z"/>
		<path class="st7" d="M252.3,161.6c1.3,0,2.5,0,3.8,0c1.3,0,2.6,0,3.8,0.1c1.3,0,2.4,0.1,3.6,0.2l-0.2,2.7h-9.9
			c-0.9,0-1.5,0.2-1.9,0.5c-0.4,0.4-0.6,0.9-0.6,1.7v19.6H247v-20.3c0-1.4,0.5-2.6,1.4-3.4C249.4,162,250.7,161.6,252.3,161.6z
			 M247.7,172.4h14.1v2.8h-14.1V172.4z"/>
		<path class="st7" d="M272.9,161.6c1.3,0,2.6,0,3.9,0c1.3,0,2.6,0,3.9,0.1c1.3,0,2.5,0.1,3.7,0.2l-0.2,2.8h-10.6
			c-0.8,0-1.3,0.2-1.7,0.5c-0.4,0.4-0.5,0.9-0.5,1.7v14.4c0,0.8,0.2,1.4,0.5,1.7c0.4,0.4,0.9,0.6,1.7,0.6h10.6l0.2,2.7
			c-1.2,0.1-2.4,0.1-3.7,0.1c-1.3,0-2.6,0-3.9,0.1c-1.3,0-2.6,0-3.9,0c-1.6,0-2.9-0.4-3.8-1.2c-0.9-0.8-1.4-1.9-1.4-3.2V166
			c0-1.4,0.5-2.4,1.4-3.2S271.4,161.6,272.9,161.6z M268.4,172h14.5v2.8h-14.5V172z"/>
		<path class="st7" d="M299.6,161.2c0.9,0,1.9,0,2.7,0.1c0.9,0,1.7,0.1,2.5,0.2c0.8,0.1,1.6,0.3,2.4,0.5l-0.4,2.7
			c-0.8-0.1-1.6-0.1-2.4-0.2s-1.6-0.1-2.4-0.1c-0.8,0-1.5,0-2.2,0c-1.4,0-2.5,0.1-3.5,0.4c-0.9,0.2-1.7,0.7-2.3,1.4
			c-0.6,0.7-1,1.7-1.2,3c-0.3,1.3-0.4,3-0.4,5.1c0,2.4,0.2,4.3,0.5,5.7c0.3,1.4,0.9,2.4,1.7,3s1.9,0.9,3.3,0.9
			c0.9,0,1.8-0.1,2.6-0.4c0.8-0.2,1.5-0.6,2.2-1c0.7-0.4,1.3-0.8,1.9-1.2l0.5,2.1c-0.4,0.5-1.1,1-1.9,1.6c-0.8,0.6-1.8,1-2.8,1.4
			c-1.1,0.4-2.3,0.6-3.7,0.6c-2,0-3.6-0.5-4.8-1.4c-1.2-0.9-2.2-2.3-2.7-4.2s-0.9-4.4-0.9-7.4c0-3.3,0.4-5.8,1.1-7.7
			c0.7-1.9,1.9-3.2,3.5-4C294.7,161.6,296.9,161.2,299.6,161.2z M307.9,172.1v14.4h-2.8l-0.6-3.7l-0.3-0.8v-9.9H307.9z"/>
		<path class="st7" d="M333.2,161.6v15.3c0,2.4-0.3,4.4-0.9,5.9c-0.6,1.5-1.6,2.5-3.1,3.2c-1.4,0.7-3.3,1-5.7,1
			c-2.5,0-4.4-0.3-5.9-1c-1.5-0.7-2.5-1.7-3.2-3.2c-0.7-1.5-1-3.4-1-5.9v-15.3h3.8v15.3c0,1.7,0.2,3.1,0.6,4.1c0.4,1,1,1.7,1.9,2.2
			c0.9,0.4,2.1,0.6,3.6,0.6c1.5,0,2.7-0.2,3.5-0.6c0.9-0.4,1.5-1.1,1.9-2.2c0.4-1,0.6-2.4,0.6-4.1v-15.3H333.2z"/>
		<path class="st7" d="M350.1,161.6c0.3,0,0.6,0.1,0.9,0.3c0.3,0.2,0.4,0.4,0.5,0.7l8.4,23.9h-4l-6.6-20c-0.1-0.3-0.2-0.7-0.3-1.1
			c-0.1-0.4-0.2-0.7-0.3-1h-1.1c-0.1,0.3-0.2,0.7-0.3,1c-0.1,0.4-0.2,0.7-0.3,1.1l-6.6,20h-4l8.4-23.9c0.1-0.3,0.3-0.5,0.5-0.7
			c0.3-0.2,0.6-0.3,0.9-0.3H350.1z M354.9,175.9v3h-13.5v-3H354.9z"/>
		<path class="st7" d="M372.8,161.3c2.1,0,3.8,0.2,5.1,0.6c1.3,0.4,2.2,1.2,2.8,2.2c0.6,1,0.9,2.5,0.9,4.4c0,1.3-0.2,2.4-0.5,3.3
			c-0.3,0.9-0.9,1.6-1.6,2.1c-0.7,0.5-1.7,0.8-2.9,1v0.2c0.4,0.1,0.9,0.3,1.3,0.6c0.4,0.3,0.8,0.7,1.2,1.2c0.4,0.5,0.7,1.1,0.8,1.9
			l2.5,7.8h-4.1l-2.3-7.7c-0.3-0.9-0.7-1.6-1.3-1.9c-0.5-0.4-1.2-0.6-2.1-0.6c-1.6,0-3,0-4.2,0c-1.2,0-2.1,0-2.9-0.1
			c-0.8,0-1.4,0-1.9,0l0.1-2.9h8.8c1.3,0,2.2-0.2,3-0.4c0.7-0.3,1.2-0.7,1.6-1.3c0.3-0.6,0.5-1.6,0.5-2.7s-0.2-2.1-0.5-2.7
			s-0.8-1.1-1.6-1.3c-0.7-0.3-1.7-0.4-3-0.4c-2.2,0-4,0-5.6,0c-1.6,0-2.6,0-3.2,0l-0.5-2.7c1-0.1,1.9-0.2,2.8-0.2
			c0.9,0,1.8-0.1,2.9-0.1C370.1,161.3,371.4,161.3,372.8,161.3z M367.3,161.6v24.8h-3.8v-24.8H367.3z"/>
		<path class="st7" d="M397,161.3c1.9,0,3.6,0.2,4.9,0.6c1.3,0.4,2.4,1.1,3.3,2.1c0.8,1,1.4,2.3,1.8,3.9c0.4,1.6,0.6,3.7,0.6,6.1
			c0,2.4-0.2,4.4-0.6,6.1c-0.4,1.6-1,3-1.8,3.9c-0.8,1-1.9,1.7-3.3,2.1c-1.3,0.4-3,0.6-4.9,0.6c-1.8,0-3.6,0-5.1-0.1
			c-1.6-0.1-3.1-0.1-4.5-0.2l1.6-2.9c1.1,0,2.3,0.1,3.6,0.1c1.3,0,2.8,0.1,4.4,0.1c1.6,0,2.9-0.3,3.9-0.9c0.9-0.6,1.6-1.6,2-3
			c0.4-1.4,0.6-3.3,0.6-5.8s-0.2-4.4-0.6-5.8c-0.4-1.4-1.1-2.4-2-3c-0.9-0.6-2.2-0.9-3.9-0.9c-1.6,0-3,0-4.3,0c-1.3,0-2.5,0-3.7,0.1
			l-1.7-2.8c1.4-0.1,2.9-0.2,4.5-0.2C393.5,161.4,395.2,161.3,397,161.3z M391.3,161.6v24.8h-3.8v-24.8H391.3z"/>
		<path class="st7" d="M416.9,161.6v24.8h-3.8v-24.8H416.9z"/>
		<path class="st7" d="M444.1,161.6v23.4c0,0.9-0.5,1.4-1.4,1.4h-3.3c-0.4,0-0.8-0.1-1-0.3c-0.2-0.2-0.5-0.5-0.6-0.8l-8.7-16.8
			c-0.2-0.5-0.5-1-0.8-1.6c-0.3-0.6-0.5-1.2-0.7-1.7H427c0.1,0.6,0.1,1.1,0.1,1.7c0,0.6,0,1.1,0,1.7v17.9h-3.8v-23.4
			c0-0.9,0.5-1.4,1.5-1.4h3.2c0.4,0,0.8,0.1,1,0.3c0.3,0.2,0.5,0.5,0.7,0.8l8.4,16.3c0.3,0.5,0.6,1.1,0.9,1.7
			c0.3,0.6,0.6,1.3,0.9,1.9h0.6c-0.1-0.6-0.1-1.3-0.1-1.9s0-1.3,0-1.9v-17.3H444.1z"/>
		<path class="st7" d="M460.9,161.2c0.9,0,1.9,0,2.7,0.1c0.9,0,1.7,0.1,2.5,0.2s1.6,0.3,2.4,0.5l-0.4,2.7c-0.8-0.1-1.6-0.1-2.4-0.2
			s-1.6-0.1-2.4-0.1c-0.8,0-1.5,0-2.2,0c-1.4,0-2.5,0.1-3.5,0.4c-0.9,0.2-1.7,0.7-2.3,1.4s-1,1.7-1.2,3c-0.3,1.3-0.4,3-0.4,5.1
			c0,2.4,0.2,4.3,0.5,5.7c0.3,1.4,0.9,2.4,1.7,3s1.9,0.9,3.3,0.9c0.9,0,1.8-0.1,2.6-0.4c0.8-0.2,1.5-0.6,2.2-1
			c0.7-0.4,1.3-0.8,1.9-1.2l0.5,2.1c-0.4,0.5-1.1,1-1.9,1.6c-0.8,0.6-1.8,1-2.8,1.4c-1.1,0.4-2.3,0.6-3.7,0.6c-2,0-3.6-0.5-4.8-1.4
			c-1.2-0.9-2.2-2.3-2.7-4.2s-0.9-4.4-0.9-7.4c0-3.3,0.4-5.8,1.1-7.7c0.7-1.9,1.9-3.2,3.5-4C455.9,161.6,458.1,161.2,460.9,161.2z
			 M469.2,172.1v14.4h-2.8l-0.6-3.7l-0.3-0.8v-9.9H469.2z"/>
		<path class="st7" d="M509.5,161.6l-9,16.5h-3.5l-9-16.5h4.1l5.4,10.2c0.2,0.5,0.4,0.9,0.6,1.4c0.2,0.5,0.4,1,0.5,1.5h0.3
			c0.2-0.5,0.4-1,0.6-1.5c0.2-0.5,0.4-1,0.6-1.4l5.4-10.3H509.5z M500.7,175.7v10.8h-3.8v-10.8H500.7z"/>
		<path class="st7" d="M522.2,161.2c1.9,0,3.6,0.2,5,0.6c1.4,0.4,2.5,1.1,3.3,2.1c0.8,1,1.4,2.3,1.8,4c0.4,1.7,0.6,3.7,0.6,6.2
			c0,2.4-0.2,4.5-0.6,6.1c-0.4,1.7-1,3-1.8,4s-1.9,1.7-3.3,2.1c-1.4,0.4-3,0.6-5,0.6c-1.9,0-3.6-0.2-5-0.6c-1.4-0.4-2.5-1.1-3.3-2.1
			s-1.4-2.3-1.8-4c-0.4-1.7-0.6-3.7-0.6-6.1c0-2.4,0.2-4.5,0.6-6.2s1-3,1.8-4c0.8-1,1.9-1.7,3.3-2.1
			C518.6,161.4,520.3,161.2,522.2,161.2z M522.2,164.3c-1.7,0-3,0.3-4,0.9c-1,0.6-1.7,1.6-2.1,3c-0.4,1.4-0.6,3.4-0.6,5.8
			c0,2.5,0.2,4.4,0.6,5.8s1.1,2.4,2.1,3c1,0.6,2.3,0.9,4,0.9s3-0.3,3.9-0.9c1-0.6,1.6-1.6,2.1-3s0.6-3.4,0.6-5.8
			c0-2.5-0.2-4.4-0.6-5.8c-0.4-1.4-1.1-2.4-2.1-3C525.2,164.6,523.9,164.3,522.2,164.3z"/>
		<path class="st7" d="M557.9,161.6v15.3c0,2.4-0.3,4.4-0.9,5.9c-0.6,1.5-1.6,2.5-3.1,3.2c-1.4,0.7-3.3,1-5.7,1
			c-2.5,0-4.4-0.3-5.9-1c-1.5-0.7-2.5-1.7-3.2-3.2c-0.7-1.5-1-3.4-1-5.9v-15.3h3.8v15.3c0,1.7,0.2,3.1,0.6,4.1c0.4,1,1,1.7,1.9,2.2
			s2.1,0.6,3.6,0.6c1.5,0,2.7-0.2,3.5-0.6c0.9-0.4,1.5-1.1,1.9-2.2c0.4-1,0.6-2.4,0.6-4.1v-15.3H557.9z"/>
		<path class="st7" d="M573.5,161.3c2.1,0,3.8,0.2,5.1,0.6s2.2,1.2,2.8,2.2s0.9,2.5,0.9,4.4c0,1.3-0.2,2.4-0.5,3.3
			c-0.3,0.9-0.9,1.6-1.6,2.1c-0.7,0.5-1.7,0.8-2.9,1v0.2c0.4,0.1,0.9,0.3,1.3,0.6c0.4,0.3,0.8,0.7,1.2,1.2c0.4,0.5,0.7,1.1,0.8,1.9
			l2.5,7.8h-4.1l-2.3-7.7c-0.3-0.9-0.7-1.6-1.3-1.9c-0.5-0.4-1.2-0.6-2.1-0.6c-1.6,0-3,0-4.2,0c-1.2,0-2.1,0-2.9-0.1
			c-0.8,0-1.4,0-1.9,0l0.1-2.9h8.8c1.3,0,2.2-0.2,3-0.4c0.7-0.3,1.2-0.7,1.6-1.3c0.3-0.6,0.5-1.6,0.5-2.7s-0.2-2.1-0.5-2.7
			c-0.3-0.6-0.8-1.1-1.6-1.3c-0.7-0.3-1.7-0.4-3-0.4c-2.2,0-4,0-5.6,0c-1.6,0-2.6,0-3.2,0l-0.5-2.7c1-0.1,1.9-0.2,2.8-0.2
			s1.8-0.1,2.9-0.1C570.8,161.3,572.1,161.3,573.5,161.3z M568,161.6v24.8h-3.8v-24.8H568z"/>
		<path class="st7" d="M610.3,161.6c1.3,0,2.5,0,3.8,0c1.3,0,2.6,0,3.8,0.1c1.3,0,2.4,0.1,3.6,0.2l-0.2,2.7h-9.9
			c-0.9,0-1.5,0.2-1.9,0.5c-0.4,0.4-0.6,0.9-0.6,1.7v19.6h-3.8v-20.3c0-1.4,0.5-2.6,1.4-3.4C607.5,162,608.8,161.6,610.3,161.6z
			 M605.8,172.4h14.1v2.8h-14.1V172.4z"/>
		<path class="st7" d="M645.5,161.6v15.3c0,2.4-0.3,4.4-0.9,5.9c-0.6,1.5-1.6,2.5-3.1,3.2c-1.4,0.7-3.3,1-5.7,1
			c-2.5,0-4.4-0.3-5.9-1c-1.5-0.7-2.5-1.7-3.2-3.2c-0.7-1.5-1-3.4-1-5.9v-15.3h3.8v15.3c0,1.7,0.2,3.1,0.6,4.1c0.4,1,1,1.7,1.9,2.2
			s2.1,0.6,3.6,0.6c1.5,0,2.7-0.2,3.5-0.6c0.9-0.4,1.5-1.1,1.9-2.2c0.4-1,0.6-2.4,0.6-4.1v-15.3H645.5z"/>
		<path class="st7" d="M670.2,161.6v3.1h-20.7v-3.1H670.2z M661.7,161.6v24.8h-3.8v-24.8H661.7z"/>
		<path class="st7" d="M693.8,161.6v15.3c0,2.4-0.3,4.4-0.9,5.9c-0.6,1.5-1.6,2.5-3.1,3.2c-1.4,0.7-3.3,1-5.7,1
			c-2.5,0-4.4-0.3-5.9-1c-1.5-0.7-2.5-1.7-3.2-3.2c-0.7-1.5-1-3.4-1-5.9v-15.3h3.8v15.3c0,1.7,0.2,3.1,0.6,4.1c0.4,1,1,1.7,1.9,2.2
			s2.1,0.6,3.6,0.6c1.5,0,2.7-0.2,3.5-0.6c0.9-0.4,1.5-1.1,1.9-2.2c0.4-1,0.6-2.4,0.6-4.1v-15.3H693.8z"/>
		<path class="st7" d="M709.4,161.3c2.1,0,3.8,0.2,5.1,0.6s2.2,1.2,2.8,2.2s0.9,2.5,0.9,4.4c0,1.3-0.2,2.4-0.5,3.3
			c-0.3,0.9-0.9,1.6-1.6,2.1c-0.7,0.5-1.7,0.8-2.9,1v0.2c0.4,0.1,0.9,0.3,1.3,0.6c0.4,0.3,0.8,0.7,1.2,1.2c0.4,0.5,0.7,1.1,0.8,1.9
			l2.5,7.8h-4.1l-2.3-7.7c-0.3-0.9-0.7-1.6-1.3-1.9c-0.5-0.4-1.2-0.6-2.1-0.6c-1.6,0-3,0-4.2,0c-1.2,0-2.1,0-2.9-0.1
			c-0.8,0-1.4,0-1.9,0l0.1-2.9h8.8c1.3,0,2.2-0.2,3-0.4c0.7-0.3,1.2-0.7,1.6-1.3c0.3-0.6,0.5-1.6,0.5-2.7s-0.2-2.1-0.5-2.7
			c-0.3-0.6-0.8-1.1-1.6-1.3c-0.7-0.3-1.7-0.4-3-0.4c-2.2,0-4,0-5.6,0c-1.6,0-2.6,0-3.2,0l-0.5-2.7c1-0.1,1.9-0.2,2.8-0.2
			s1.8-0.1,2.9-0.1C706.8,161.3,708,161.3,709.4,161.3z M703.9,161.6v24.8h-3.8v-24.8H703.9z"/>
		<path class="st7" d="M729,161.6c1.3,0,2.6,0,3.9,0s2.6,0,3.9,0.1s2.5,0.1,3.7,0.2l-0.2,2.8h-10.6c-0.8,0-1.3,0.2-1.7,0.5
			c-0.4,0.4-0.5,0.9-0.5,1.7v14.4c0,0.8,0.2,1.4,0.5,1.7s0.9,0.6,1.7,0.6h10.6l0.2,2.7c-1.2,0.1-2.4,0.1-3.7,0.1
			c-1.3,0-2.6,0-3.9,0.1c-1.3,0-2.6,0-3.9,0c-1.6,0-2.9-0.4-3.8-1.2c-0.9-0.8-1.4-1.9-1.4-3.2V166c0-1.4,0.5-2.4,1.4-3.2
			C726.2,162,727.5,161.6,729,161.6z M724.5,172H739v2.8h-14.5V172z"/>
		<path class="st7" d="M747.4,182c0.5,0,0.9,0.1,1.1,0.3c0.2,0.2,0.3,0.5,0.3,1v2.3c0,0.7-0.1,1.4-0.2,2.1c-0.1,0.7-0.3,1.3-0.5,1.9
			s-0.5,1.2-0.8,1.8l-1.7-0.5c0.2-0.8,0.3-1.5,0.3-2.1c0.1-0.6,0.1-1.4,0.1-2.3c-0.7,0-1-0.4-1-1.1v-2.1c0-0.5,0.1-0.8,0.4-1
			c0.2-0.2,0.6-0.3,1-0.3H747.4z"/>
		<path class="st7" d="M768.1,161.6c1.3,0,2.6,0,3.9,0s2.6,0,3.9,0.1s2.5,0.1,3.7,0.2l-0.2,2.8H769c-0.8,0-1.3,0.2-1.7,0.5
			c-0.4,0.4-0.5,0.9-0.5,1.7v14.4c0,0.8,0.2,1.4,0.5,1.7s0.9,0.6,1.7,0.6h10.6l0.2,2.7c-1.2,0.1-2.4,0.1-3.7,0.1
			c-1.3,0-2.6,0-3.9,0.1c-1.3,0-2.6,0-3.9,0c-1.6,0-2.9-0.4-3.8-1.2c-0.9-0.8-1.4-1.9-1.4-3.2V166c0-1.4,0.5-2.4,1.4-3.2
			C765.3,162,766.5,161.6,768.1,161.6z M763.6,172H778v2.8h-14.5V172z"/>
		<path class="st7" d="M804.6,161.6l-7.9,23.8c-0.1,0.3-0.3,0.5-0.5,0.7c-0.3,0.2-0.6,0.3-0.9,0.3h-3.8c-0.4,0-0.7-0.1-0.9-0.3
			c-0.3-0.2-0.4-0.4-0.5-0.7l-7.9-23.8h4l6,19.4c0.1,0.5,0.3,0.9,0.4,1.3c0.1,0.4,0.2,0.9,0.3,1.3h1c0.1-0.5,0.2-0.9,0.3-1.4
			c0.1-0.5,0.3-0.9,0.4-1.4l6-19.3H804.6z"/>
		<path class="st7" d="M813.4,161.6c1.3,0,2.6,0,3.9,0s2.6,0,3.9,0.1s2.5,0.1,3.7,0.2l-0.2,2.8h-10.6c-0.8,0-1.3,0.2-1.7,0.5
			c-0.4,0.4-0.5,0.9-0.5,1.7v14.4c0,0.8,0.2,1.4,0.5,1.7s0.9,0.6,1.7,0.6h10.6l0.2,2.7c-1.2,0.1-2.4,0.1-3.7,0.1
			c-1.3,0-2.6,0-3.9,0.1c-1.3,0-2.6,0-3.9,0c-1.6,0-2.9-0.4-3.8-1.2c-0.9-0.8-1.4-1.9-1.4-3.2V166c0-1.4,0.5-2.4,1.4-3.2
			C810.6,162,811.8,161.6,813.4,161.6z M808.9,172h14.5v2.8h-14.5V172z"/>
		<path class="st7" d="M839.4,161.3c2.1,0,3.8,0.2,5.1,0.6s2.2,1.2,2.8,2.2s0.9,2.5,0.9,4.4c0,1.3-0.2,2.4-0.5,3.3
			c-0.3,0.9-0.9,1.6-1.6,2.1c-0.7,0.5-1.7,0.8-2.9,1v0.2c0.4,0.1,0.9,0.3,1.3,0.6c0.4,0.3,0.8,0.7,1.2,1.2c0.4,0.5,0.7,1.1,0.8,1.9
			l2.5,7.8h-4.1l-2.3-7.7c-0.3-0.9-0.7-1.6-1.3-1.9c-0.5-0.4-1.2-0.6-2.1-0.6c-1.6,0-3,0-4.2,0c-1.2,0-2.1,0-2.9-0.1
			c-0.8,0-1.4,0-1.9,0l0.1-2.9h8.8c1.3,0,2.2-0.2,3-0.4c0.7-0.3,1.2-0.7,1.6-1.3c0.3-0.6,0.5-1.6,0.5-2.7s-0.2-2.1-0.5-2.7
			c-0.3-0.6-0.8-1.1-1.6-1.3c-0.7-0.3-1.7-0.4-3-0.4c-2.2,0-4,0-5.6,0c-1.6,0-2.6,0-3.2,0l-0.5-2.7c1-0.1,1.9-0.2,2.8-0.2
			s1.8-0.1,2.9-0.1C836.8,161.3,838,161.3,839.4,161.3z M833.9,161.6v24.8h-3.8v-24.8H833.9z"/>
		<path class="st7" d="M872.2,161.6l-9,16.5h-3.5l-9-16.5h4.1l5.4,10.2c0.2,0.5,0.4,0.9,0.6,1.4c0.2,0.5,0.4,1,0.5,1.5h0.3
			c0.2-0.5,0.4-1,0.6-1.5c0.2-0.5,0.4-1,0.6-1.4l5.4-10.3H872.2z M863.4,175.7v10.8h-3.8v-10.8H863.4z"/>
		<path class="st7" d="M885.4,161.3c1.9,0,3.6,0.2,4.9,0.6c1.3,0.4,2.4,1.1,3.3,2.1c0.8,1,1.4,2.3,1.8,3.9c0.4,1.6,0.6,3.7,0.6,6.1
			c0,2.4-0.2,4.4-0.6,6.1c-0.4,1.6-1,3-1.8,3.9c-0.8,1-1.9,1.7-3.3,2.1c-1.3,0.4-3,0.6-4.9,0.6c-1.8,0-3.6,0-5.1-0.1
			c-1.6-0.1-3.1-0.1-4.5-0.2l1.6-2.9c1.1,0,2.3,0.1,3.6,0.1c1.3,0,2.8,0.1,4.4,0.1c1.6,0,2.9-0.3,3.9-0.9s1.6-1.6,2-3
			c0.4-1.4,0.6-3.3,0.6-5.8s-0.2-4.4-0.6-5.8c-0.4-1.4-1.1-2.4-2-3c-0.9-0.6-2.2-0.9-3.9-0.9c-1.6,0-3,0-4.3,0c-1.3,0-2.5,0-3.7,0.1
			l-1.7-2.8c1.4-0.1,2.9-0.2,4.5-0.2C881.9,161.4,883.6,161.3,885.4,161.3z M879.7,161.6v24.8h-3.8v-24.8H879.7z"/>
		<path class="st7" d="M912.1,161.6c0.3,0,0.6,0.1,0.9,0.3c0.3,0.2,0.4,0.4,0.5,0.7l8.4,23.9h-4l-6.6-20c-0.1-0.3-0.2-0.7-0.3-1.1
			s-0.2-0.7-0.3-1h-1.1c-0.1,0.3-0.2,0.7-0.3,1s-0.2,0.7-0.3,1.1l-6.6,20h-4l8.4-23.9c0.1-0.3,0.3-0.5,0.5-0.7
			c0.3-0.2,0.6-0.3,0.9-0.3H912.1z M916.9,175.9v3h-13.5v-3H916.9z"/>
		<path class="st7" d="M941.9,161.6l-9,16.5h-3.5l-9-16.5h4.1l5.4,10.2c0.2,0.5,0.4,0.9,0.6,1.4c0.2,0.5,0.4,1,0.5,1.5h0.3
			c0.2-0.5,0.4-1,0.6-1.5c0.2-0.5,0.4-1,0.6-1.4l5.4-10.3H941.9z M933.1,175.7v10.8h-3.8v-10.8H933.1z"/>
	</g>
	<line class="st8" x1="200.8" y1="132.9" x2="941.3" y2="132.9"/>
</g>
</svg>
